<?xml version="1.0" encoding="UTF-8"?>
<svg id="Camada_2" data-name="Camada 2" xmlns="http://www.w3.org/2000/svg" viewBox="0 0 113.12 118.77">
  <defs>
    <style>
      .cls-1 {
        fill: #d1d1d1;
      }
    </style>
  </defs>
  <g id="Camada_1-2" data-name="Camada 1">
    <path class="cls-1" d="M113.12,59.38c0,32.8-25.32,59.38-56.56,59.38S0,92.18,0,59.38,25.32,0,56.56,0s56.56,26.59,56.56,59.38ZM39.32,57.26c-2.04-.47-3.59.31-5.15,1.94l-2.01-3.94c-5.99-1.01-4.46,2.57-8.48,2.07l-1.78-.22c.24-1.39-.06-2.44-1.03-3.06-1.06-.67-.71-1.86-1.09-2.7-.57-1.25-2.53-.35-2.98.68-.11.25-.69.56-.92.5-.19-.05-.55-.38-.63-.57l-1.37-3.24c2.41-3.74,8.89-2.32,11.93-.02,7.29-4.97,3.36-9.46,8.41-15.13,2.99-3.36,5.46-1.27,7.58-2.06,1.31-.48.09-3.34.77-4.08l5.9,2.04,3.74-3.92c-1.16-.1-1.79-.49-2.22-1.44-.57-1.29-2.61-6.18-4.39-4.94-1.47,1.02-3,1.69-4.8,1.68l-4.54-.04c-3.63-.03-3.47,3.96-4.19,3.95-.99,0-1.04-2.13-3.09-1.67-.36.08-1-.56-.99-.99l.1-3.06c.35-.38,1.16-.75,1.6-.9l3.4-1.15c2.51-.85,1.65,2.54,4.54,1.31s5.43-2,8.67-1.78c-1.55-3.34-2.18-6.71-6.17-6.38l-2.12.17c-1.16,1.55-2.77,2.47-4.37,3.35-2.47,1.36-2.45-.86-4.4-1.96C15.64,20.37,6.38,34.86,4.15,51.44c2,3.02,3.66.17,7.7,4.08,3.46,3.35,5.31.67,6.58,2.43,2.03,2.82,4.55.78,5.3,1.73.55.69.2,2.03-.56,2.66-.82.68-1.5,1.81-1.81,2.89l-1.29,4.49c-.47,1.64,3.02,6.04,4.17,7.33,2.34,2.63,5.47,1.19,5.79,1.98.27.66-.54,2.9.86,5.73l2.43,4.93c1.82,3.69-.12,3.99,1.51,7.47,1.32,2.84,2.28,5.76,3.22,8.77.99,3.16,3.4,2.93,6.2,2.73-2.59-3-4.69-5.92-2.91-9.89.98-2.18.63-3,2.08-3.38,3.44-.9,3.27-3.99,2.98-6.61-.14-1.3.51-2,1.61-2.28,4.14-1.04,1.6-4.96,3-5.92,2.77-.66,4.27-2.88,4.92-5.66.38-1.63.76-2.93-.05-4.58-.68-1.39-1.64-2.76-3.2-3.36-1.68-.64-2.82-2.28-4.29-3.06-.96-.51-2.35-.14-2.73-1.78-.73-3.13-3.27-4.22-6.3-4.91ZM93.88,19.96c-1.47-1.72-2.91-2.98-4.6-4.36-.32,1.86,3.25,4.1,4.6,4.36ZM93.28,29.63l1.36,2.43c1.42,2.55-.36,3.68,2.86,5.84.64-.25,3.81-1.59,3.68-2.21-.15-.76-2.81-2.89-3.47-4.03.37-.91,1.09-1.73,1.94-1.91l3.61,3.73.29,1.64c.05.28.15.54.26.69.08.11.57.02.78-.05-2.4-5.38-5.58-10.31-9.49-14.6-1.48,2.05-2.42,1.89-4.94,1.91-1.73.01-2.86,1.15-2.92,3.01-.03,1.07-.09,2.05-.19,3.23l-1.2-1.31c-1.44-.67-2.95-.91-4.58-.72-2.61,3.83-2.44,4.56-.2,8.51,2.82.09,3.55.62,5.43-1.18,2.68-2.57,4.02-1.75,6.78-4.98ZM94.04,82.17c-.57.55-.61,1.15-.26,1.87l3.56,7.44c.04,1.05,0,2.14.16,3.26,11.14-14.05,14.76-32.95,10.13-50.43l-2.79-1.27c-.9-.99-1.86-.53-2.79-.04-1.76.92-3.32,1.73-4.59,3.52l-3.28-1.66c-1.92-.97-1.93-2.56-3.79-2.56h-3.82c-3.99,0-1.85,2.1-9.13,2.23-1.44.02-2.46,2-2.45,3.4v4.43c.01,1.51-2.13,1.2-2.07,4.46.08,4.34.16,10.16,4.25,12.4,2.91,1.59,5.98,1.09,8.76-.49s5.83-.59,8.34.75-.35,3.7,2.52,7.86c1.1,1.59-1.41,3.55-2.73,4.82Z"/>
  </g>
</svg>