<?xml version="1.0" encoding="UTF-8"?>
<svg id="Camada_2" data-name="Camada 2" xmlns="http://www.w3.org/2000/svg" viewBox="0 0 110.63 115.52">
  <defs>
    <style>
      .cls-1 {
        fill: #d1d1d1;
      }
    </style>
  </defs>
  <g id="Camada_1-2" data-name="Camada 1">
    <g>
      <path class="cls-1" d="M91.86,83.54c11.39-17.59,9.78-40.82-3.64-56.51-6.63-7.75-17.61-14.25-27.35-14.99l-3.47-.26c-6.38-.49-13.88,1.02-19.74,3.75-.93.43-2.23.4-2.73-.65l-3.32-6.9c-.39-.81-.33-2.22.67-2.71C40.82,1.13,50.23-.58,59.52.17c27.19,2.18,48.86,24.81,50.95,53.21,1,13.64-2.69,27.29-10.6,38.52l6.87,7.32c.66.7-.06,2.72-1.05,2.72l-20.67.1c-1.36,0-2.11-.81-2.11-2.21l.02-20.89c0-.77.37-1.4.84-1.72.53-.37,1.58-.4,2.08.12l6.01,6.2Z"/>
      <g>
        <path class="cls-1" d="M57.3,103.78l3.55-.27c4.57-.34,8.76-1.94,12.98-3.85.52-.23,1.64.47,1.88.99,1.13,2.44,2.49,4.89,3.47,7.39.51,1.29-.72,2.26-1.7,2.69-5.76,2.51-11.59,4.19-17.86,4.61-2.89.19-5.74.25-8.52.02C20.71,112.95-2.11,85.16.16,53.49c.78-10.83,4.4-21.05,10.58-29.86l-6.86-7.3c-.65-.7.06-2.72,1.05-2.72l20.67-.1c1.33,0,2.12.8,2.11,2.21l-.12,21.59c0,1.21-2.14,1.63-2.81.93l-6.04-6.25c-11.41,17.64-9.75,40.94,3.76,56.65,6.57,7.64,17.63,14.16,27.24,14.87l3.48.26c1.38.1,2.56.13,4.07.02Z"/>
        <path class="cls-1" d="M53.16,89.7c-.6.99-1.72.87-2.36.59-1.59-.68-.94-3.53-.82-5.11l.22-3.13.23-3.13.23-3.13c.27-3.66.52-6.67.71-10.34h-14.68c-.65,0-1.18-.5-1.37-.89-.32-.62-.44-1.37-.02-2.05l22.23-36.77c.52-.86,1.7-.78,2.31-.51,1.59.7.94,3.5.83,5.11l-.22,3.13-.23,3.13-.23,3.13-.25,2.89c-.08.99.07,1.93-.24,2.91.22-.72-.45,4.7-.22,4.53l14.88.03c.65,0,1.08.66,1.27,1.04.26.55.24,1.4-.14,2.03l-22.11,36.52Z"/>
      </g>
    </g>
  </g>
</svg>