<?xml version="1.0" encoding="UTF-8"?>
<svg id="Camada_2" data-name="Camada 2" xmlns="http://www.w3.org/2000/svg" viewBox="0 0 112.02 120.13">
  <defs>
    <style>
      .cls-1 {
        fill: #a24728;
      }
    </style>
  </defs>
  <g id="Camada_1-2" data-name="Camada 1">
    <g>
      <path class="cls-1" d="M112.02,55.44v9.38c-.32,14.18-6.68,28.07-16.03,38.1-9.34,10.04-22.26,16.87-35.49,17.21h-8.73c-11.91-.22-22.57-5.73-31.75-13.55C10.13,98.15,1.9,82.96.45,69.4c-.69-6.42-.64-15.65.56-21.95C4.8,27.4,18.58,10.62,36.29,3.46,42.4.98,47.61.17,53.73.04c7.37-.16,14.07.02,21.26,2.9,11.38,4.56,21.8,13.23,28.45,24.23,5.04,8.33,8.42,18.31,8.58,28.28ZM93.02,95.24c17.84-21.69,16.21-54.77-3.74-74.25-8.33-8.13-19-12.97-30.29-13.66-1.94-.12-3.57-.32-5.47.02-.81.15-1.71.05-2.41.13C26.79,10.21,8.18,31.35,6.9,57.53c-.08,1.66-.12,3.29-.02,5.14,1.43,27.37,21.24,48.71,46.71,50.33,1.73.11,3.19.13,4.92.02,13.28-.81,25.66-7.03,34.5-17.78Z"/>
      <path class="cls-1" d="M72.96,92.85l-33.62-.07c-3.85,0-7.45-4.51-7.54-8.44-.17-7.42-.25-14.32.04-21.54.16-4.02,3.28-7.02,6.55-8.09l.14-9.5c.15-10.16,8.24-17.9,17.51-17.96,9.36-.05,17.57,7.71,17.71,17.95l.13,9.5c3.3,1.08,6.37,4.05,6.56,8.1.33,7.29.13,14.52.07,21.84-.03,3.53-4.32,8.2-7.55,8.2ZM65.75,54.26l-.07-8.58c-.05-5.58-4.41-9.69-9.43-9.75s-9.58,3.93-9.64,9.53l-.09,8.81h19.23Z"/>
    </g>
  </g>
</svg>